<svg width="162" height="48" viewBox="0 0 162 48" fill="none" xmlns="http://www.w3.org/2000/svg">
    <g clip-path="url(#clip0_16467_137549)">
        <path fill-rule="evenodd" clip-rule="evenodd"
            d="M12.908 2.06469e-06H149.099C149.586 2.06469e-06 150.08 -0.000153935 150.567 0.00224606C150.904 0.00415615 151.247 0.00919256 151.587 0.0141637C151.663 0.0152826 151.739 0.0163982 151.815 0.0174741C152.722 0.0264114 153.627 0.0973254 154.522 0.229586C155.421 0.365091 156.292 0.618683 157.106 0.981986C158.734 1.72323 160.059 2.89824 160.895 4.34175C161.303 5.06101 161.586 5.83114 161.733 6.62573C161.884 7.41989 161.968 8.22291 161.984 9.02813C161.989 9.3961 161.989 9.76524 161.989 10.1332C162 10.568 162 11.0039 162 11.4434V36.5578C162 37.0008 162 37.4344 161.989 37.8703C161.989 38.2429 161.989 38.6039 161.984 38.9766C161.968 39.7818 161.884 40.5848 161.733 41.3789C161.586 42.1739 161.304 42.9445 160.895 43.664C160.48 44.3801 159.94 45.0339 159.295 45.6012C158.655 46.1734 157.916 46.651 157.106 47.0156C156.292 47.3799 155.421 47.635 154.522 47.7726C153.627 47.9038 152.722 47.9747 151.815 47.9848C151.402 47.9929 150.979 47.9976 150.567 47.9976C150.08 48 149.586 48 149.099 48H12.908C12.4115 48 11.921 48 11.4259 47.9976C11.0115 47.9976 10.6003 47.9929 10.1819 47.9848C9.27286 47.9741 8.36604 47.9032 7.46899 47.7726C6.57326 47.636 5.70577 47.3808 4.8956 47.0156C4.08445 46.6512 3.3446 46.1736 2.70429 45.6012C2.05806 45.0361 1.51939 44.3819 1.10923 43.664C0.697348 42.945 0.412007 42.1744 0.263109 41.3789C0.112383 40.5849 0.0312737 39.7817 0.0205099 38.9766C0.0119268 38.722 0.00858839 38.4728 0.00522355 38.2217C0.00366324 38.1052 0.00209725 37.9884 0 37.8703V10.1332C0.00212211 10.0153 0.00370028 9.89718 0.00527902 9.77906C0.00862524 9.5287 0.011974 9.27816 0.0205099 9.02818C0.0312704 8.22303 0.112379 7.41982 0.263109 6.62578C0.412419 5.83073 0.697744 5.06053 1.10923 4.34179C1.51958 3.62162 2.05817 2.96477 2.70429 2.39649C3.34704 1.8266 4.08641 1.34937 4.8956 0.982094C5.70578 0.617901 6.57336 0.364241 7.46899 0.229694C8.36589 0.0980136 9.2728 0.0271242 10.1819 0.0176421C10.2687 0.0164238 10.3553 0.015158 10.4416 0.0138954C10.7712 0.00907627 11.0975 0.00430381 11.4259 0.00240206C11.921 2.06474e-06 12.4115 2.06469e-06 12.908 2.06469e-06ZM10.0896 46.9408C10.4996 46.9489 10.9028 46.9536 11.316 46.9536L149.221 46.956L150.691 46.9536C151.094 46.9536 151.51 46.9489 151.908 46.9408C152.757 46.9316 153.604 46.8662 154.442 46.745C155.23 46.6268 155.992 46.4044 156.704 46.0851C157.407 45.7689 158.048 45.3545 158.602 44.8579C159.157 44.371 159.622 43.8097 159.98 43.1947C160.338 42.5637 160.585 41.8877 160.712 41.1902C160.85 40.4547 160.928 39.7111 160.944 38.9656C160.949 38.5976 160.949 38.24 160.949 37.8497C160.96 37.4207 160.96 36.9952 160.96 36.5592V11.4395C160.96 11.0076 160.96 10.5792 160.949 10.1291C160.949 9.76575 160.949 9.40064 160.945 9.06073C160.929 8.30161 160.85 7.54456 160.709 6.7956C160.581 6.10728 160.337 5.44002 159.983 4.81648C159.261 3.56953 158.116 2.55391 156.708 1.91196C155.994 1.59446 155.23 1.37285 154.442 1.2544C153.609 1.13337 152.767 1.06813 151.922 1.05925L150.684 1.04401H11.3166L10.093 1.05866C9.2408 1.06801 8.39062 1.13383 7.54955 1.25558C6.76944 1.37256 6.01363 1.59264 5.30744 1.90844C4.60491 2.22698 3.96319 2.64109 3.40568 3.13566C2.84755 3.62558 2.38265 4.1922 2.02902 4.81355C1.66998 5.44143 1.42145 6.11417 1.29202 6.80849C1.15293 7.55135 1.07788 8.30251 1.06754 9.05544C1.05961 9.29925 1.04762 10.1291 1.04762 10.1291V37.8556C1.04762 37.8556 1.05888 38.6984 1.06747 38.9515C1.07827 39.7057 1.15376 40.458 1.29327 41.202C1.42246 41.8944 1.6708 42.5652 2.02965 43.1911C2.38458 43.8128 2.85207 44.379 3.41359 44.8672C3.96709 45.3612 4.60677 45.7732 5.3081 46.0874C6.01592 46.4042 6.77317 46.6259 7.55485 46.745C8.39316 46.8655 9.24041 46.931 10.0896 46.9408Z"
            fill="#A6A6A6" />
        <path
            d="M11.3152 46.9536C10.902 46.9536 10.4988 46.9489 10.0889 46.9408C9.23967 46.931 8.39242 46.8655 7.55411 46.745C6.77242 46.6258 6.01518 46.4042 5.30735 46.0874C4.60602 45.7732 3.96635 45.3612 3.41284 44.8672C2.85133 44.379 2.38384 43.8128 2.0289 43.1911C1.67006 42.5652 1.42171 41.8944 1.29252 41.202C1.15301 40.458 1.07753 39.7057 1.06673 38.9515C1.05813 38.6984 1.04688 37.8556 1.04688 37.8556V10.1291C1.04688 10.1291 1.05886 9.29925 1.0668 9.05544C1.07714 8.3025 1.15218 7.55135 1.29128 6.80849C1.4207 6.11417 1.66924 5.44142 2.02828 4.81355C2.38191 4.1922 2.8468 3.62558 3.40494 3.13566C3.96245 2.64109 4.60416 2.22698 5.30669 1.90844C6.01289 1.59263 6.7687 1.37255 7.5488 1.25557C8.38987 1.13383 9.24006 1.06801 10.0922 1.05866L11.3159 1.04401H150.683L151.921 1.05925C152.766 1.06813 153.608 1.13337 154.442 1.2544C155.23 1.37285 155.993 1.59446 156.708 1.91196C158.115 2.55391 159.26 3.56953 159.983 4.81648C160.336 5.44002 160.581 6.10727 160.709 6.7956C160.849 7.54456 160.928 8.30161 160.944 9.06072C160.948 9.40063 160.948 9.76575 160.948 10.1291C160.959 10.5792 160.959 11.0076 160.959 11.4395V36.5592C160.959 36.9952 160.959 37.4207 160.948 37.8497C160.948 38.24 160.948 38.5976 160.943 38.9656C160.927 39.7111 160.85 40.4547 160.711 41.1902C160.585 41.8877 160.338 42.5637 159.979 43.1947C159.621 43.8097 159.157 44.371 158.602 44.8578C158.048 45.3545 157.407 45.7689 156.704 46.0851C155.991 46.4044 155.229 46.6268 154.442 46.745C153.603 46.8662 152.756 46.9316 151.907 46.9408C151.51 46.9489 151.094 46.9536 150.69 46.9536L149.22 46.956L11.3152 46.9536Z"
            fill="black" />
        <path
            d="M39.3564 24.3608C39.3693 23.3592 39.6353 22.3771 40.1298 21.506C40.6242 20.6348 41.3309 19.9029 42.1843 19.3783C41.6422 18.6041 40.927 17.967 40.0956 17.5175C39.2643 17.0681 38.3395 16.8187 37.3949 16.7891C35.3798 16.5776 33.4262 17.9949 32.3994 17.9949C31.3527 17.9949 29.7717 16.8101 28.0692 16.8451C26.968 16.8807 25.8948 17.2009 24.9541 17.7746C24.0135 18.3483 23.2374 19.1558 22.7017 20.1186C20.3809 24.1367 22.112 30.0419 24.3351 33.2899C25.4474 34.8803 26.7473 36.6568 28.4483 36.5938C30.1127 36.5248 30.7344 35.5324 32.7436 35.5324C34.7341 35.5324 35.3173 36.5938 37.0528 36.5538C38.8388 36.5248 39.9641 34.9563 41.0374 33.3508C41.8365 32.2176 42.4515 30.9651 42.8595 29.6398C41.8218 29.2009 40.9363 28.4663 40.3134 27.5275C39.6904 26.5888 39.3576 25.4874 39.3564 24.3608Z"
            fill="white" />
        <path
            d="M36.0775 14.653C37.0513 13.484 37.5311 11.9814 37.4149 10.4643C35.9271 10.6206 34.5528 11.3316 33.5658 12.4558C33.0833 13.005 32.7137 13.6439 32.4782 14.3361C32.2427 15.0282 32.1459 15.7599 32.1934 16.4895C32.9376 16.4972 33.6738 16.3359 34.3466 16.0178C35.0193 15.6997 35.6112 15.233 36.0775 14.653Z"
            fill="white" />
        <path
            d="M60.3973 32.5676H54.7172L53.3531 36.5953H50.9473L56.3273 21.6937H58.8269L64.207 36.5953H61.7601L60.3973 32.5676ZM55.3055 30.709H59.8079L57.5883 24.1723H57.5262L55.3055 30.709Z"
            fill="white" />
        <path
            d="M75.8262 31.1637C75.8262 34.5399 74.0191 36.709 71.2922 36.709C70.6014 36.7451 69.9144 36.586 69.3099 36.2498C68.7053 35.9137 68.2076 35.4141 67.8738 34.8082H67.8222V40.1894H65.5922V25.7309H67.7508V27.5379H67.7918C68.1409 26.9349 68.647 26.4379 69.2562 26.0997C69.8653 25.7615 70.5548 25.5947 71.2512 25.6172C74.0085 25.6172 75.8262 27.7969 75.8262 31.1637ZM73.534 31.1637C73.534 28.9641 72.3973 27.518 70.6629 27.518C68.959 27.518 67.8129 28.9945 67.8129 31.1637C67.8129 33.3527 68.959 34.8188 70.6629 34.8188C72.3973 34.8188 73.534 33.3832 73.534 31.1637Z"
            fill="white" />
        <path
            d="M87.784 31.1637C87.784 34.5399 85.977 36.709 83.25 36.709C82.5592 36.7451 81.8722 36.586 81.2677 36.2498C80.6631 35.9137 80.1654 35.4141 79.8316 34.8082H79.78V40.1894H77.55V25.7309H79.7085V27.5379H79.7496C80.0987 26.9349 80.6048 26.4379 81.2139 26.0997C81.8231 25.7615 82.5126 25.5947 83.209 25.6172C85.9664 25.6172 87.784 27.7969 87.784 31.1637ZM85.4918 31.1637C85.4918 28.9641 84.3551 27.518 82.6207 27.518C80.9168 27.518 79.7707 28.9945 79.7707 31.1637C79.7707 33.3527 80.9168 34.8188 82.6207 34.8188C84.3551 34.8188 85.4918 33.3832 85.4918 31.1637Z"
            fill="white" />
        <path
            d="M95.6871 32.4434C95.8524 33.9211 97.2879 34.8914 99.2496 34.8914C101.129 34.8914 102.482 33.9211 102.482 32.5886C102.482 31.432 101.666 30.7394 99.7348 30.2648L97.8035 29.7996C95.0672 29.1386 93.7969 27.8589 93.7969 25.7824C93.7969 23.2113 96.0375 21.4453 99.2191 21.4453C102.368 21.4453 104.527 23.2113 104.599 25.7824H102.348C102.213 24.2953 100.984 23.3976 99.1875 23.3976C97.391 23.3976 96.1617 24.3058 96.1617 25.6277C96.1617 26.6812 96.9469 27.3011 98.8676 27.7757L100.509 28.1788C103.567 28.9019 104.837 30.13 104.837 32.3097C104.837 35.0976 102.616 36.8437 99.0843 36.8437C95.7796 36.8437 93.5484 35.1386 93.4043 32.4433L95.6871 32.4434Z"
            fill="white" />
        <path
            d="M109.65 23.1598V25.7309H111.716V27.4969H109.65V33.4863C109.65 34.4168 110.064 34.8504 110.972 34.8504C111.217 34.8461 111.462 34.8289 111.705 34.7988V36.5543C111.297 36.6306 110.882 36.6651 110.467 36.6574C108.267 36.6574 107.409 35.8312 107.409 33.7242V27.4969H105.83V25.7309H107.409V23.1598H109.65Z"
            fill="white" />
        <path
            d="M112.913 31.1637C112.913 27.7453 114.926 25.5973 118.065 25.5973C121.215 25.5973 123.219 27.7453 123.219 31.1637C123.219 34.5914 121.226 36.7301 118.065 36.7301C114.906 36.7301 112.913 34.5914 112.913 31.1637ZM120.947 31.1637C120.947 28.8188 119.872 27.4348 118.065 27.4348C116.258 27.4348 115.185 28.8293 115.185 31.1637C115.185 33.518 116.258 34.8914 118.065 34.8914C119.872 34.8914 120.947 33.518 120.947 31.1637Z"
            fill="white" />
        <path
            d="M125.058 25.7309H127.185V27.5801H127.236C127.38 27.0025 127.719 26.4921 128.195 26.1347C128.67 25.7772 129.255 25.5945 129.85 25.6172C130.107 25.6163 130.363 25.6442 130.614 25.7004V27.7863C130.289 27.6872 129.951 27.6417 129.612 27.6516C129.288 27.6384 128.965 27.6955 128.665 27.819C128.365 27.9425 128.096 28.1293 127.875 28.3668C127.654 28.6043 127.487 28.8867 127.386 29.1947C127.285 29.5027 127.251 29.829 127.288 30.1512V36.5953H125.058L125.058 25.7309Z"
            fill="white" />
        <path
            d="M140.896 33.4043C140.596 35.3766 138.675 36.7301 136.218 36.7301C133.057 36.7301 131.095 34.6125 131.095 31.2152C131.095 27.8074 133.068 25.5973 136.124 25.5973C139.13 25.5973 141.02 27.6621 141.02 30.9562V31.7203H133.346V31.8551C133.311 32.2549 133.361 32.6577 133.493 33.0367C133.626 33.4157 133.837 33.7623 134.113 34.0533C134.39 34.3444 134.725 34.5733 135.097 34.7249C135.468 34.8764 135.868 34.9472 136.269 34.9324C136.796 34.9818 137.325 34.8597 137.777 34.5844C138.229 34.3091 138.58 33.8952 138.778 33.4043L140.896 33.4043ZM133.357 30.1617H138.789C138.809 29.8022 138.754 29.4424 138.629 29.105C138.503 28.7675 138.309 28.4597 138.059 28.2008C137.809 27.9418 137.507 27.7374 137.174 27.6004C136.842 27.4633 136.484 27.3966 136.124 27.4043C135.761 27.4021 135.401 27.4719 135.065 27.6096C134.729 27.7473 134.423 27.9502 134.166 28.2065C133.909 28.4629 133.705 28.7676 133.566 29.1032C133.427 29.4388 133.356 29.7986 133.357 30.1617Z"
            fill="white" />
        <path
            d="M55.0258 10.4772C55.4933 10.4436 55.9625 10.5143 56.3994 10.684C56.8363 10.8537 57.2302 11.1183 57.5525 11.4586C57.8748 11.799 58.1175 12.2066 58.2632 12.6521C58.4089 13.0977 58.4539 13.57 58.3949 14.035C58.3949 16.3225 57.1586 17.6374 55.0258 17.6374H52.4395V10.4772H55.0258ZM53.5516 16.6248H54.9016C55.2356 16.6448 55.57 16.59 55.8802 16.4644C56.1905 16.3389 56.4688 16.1458 56.695 15.8991C56.9212 15.6524 57.0895 15.3584 57.1878 15.0385C57.286 14.7185 57.3117 14.3807 57.2629 14.0496C57.3081 13.7198 57.2799 13.3841 57.1801 13.0665C57.0804 12.7489 56.9116 12.4573 56.686 12.2125C56.4603 11.9678 56.1833 11.7761 55.8748 11.651C55.5663 11.5259 55.2339 11.4706 54.9016 11.489H53.5516V16.6248Z"
            fill="white" />
        <path
            d="M59.6512 14.9332C59.6172 14.5781 59.6578 14.2198 59.7704 13.8813C59.883 13.5428 60.0651 13.2316 60.3051 12.9677C60.545 12.7037 60.8375 12.4928 61.1637 12.3484C61.4899 12.2041 61.8427 12.1295 62.1994 12.1295C62.5561 12.1295 62.9089 12.2041 63.2351 12.3484C63.5614 12.4928 63.8538 12.7037 64.0937 12.9677C64.3337 13.2316 64.5158 13.5428 64.6284 13.8813C64.741 14.2198 64.7816 14.5781 64.7476 14.9332C64.7823 15.2887 64.7421 15.6474 64.6298 15.9865C64.5175 16.3255 64.3355 16.6373 64.0955 16.9018C63.8555 17.1663 63.5628 17.3776 63.2363 17.5223C62.9098 17.6669 62.5566 17.7416 62.1994 17.7416C61.8423 17.7416 61.4891 17.6669 61.1625 17.5223C60.836 17.3776 60.5433 17.1663 60.3033 16.9018C60.0633 16.6373 59.8813 16.3255 59.769 15.9865C59.6567 15.6474 59.6165 15.2887 59.6512 14.9332ZM63.6508 14.9332C63.6508 13.7619 63.1246 13.077 62.2012 13.077C61.2742 13.077 60.7528 13.7619 60.7528 14.9332C60.7528 16.1139 61.2742 16.7936 62.2012 16.7936C63.1246 16.7935 63.6508 16.1092 63.6508 14.9332Z"
            fill="white" />
        <path
            d="M71.5223 17.6373H70.416L69.2992 13.6576H69.2149L68.1027 17.6373H67.007L65.5176 12.2338H66.5992L67.5672 16.357H67.6469L68.7578 12.2338H69.7809L70.8918 16.357H70.9762L71.9395 12.2338H73.0059L71.5223 17.6373Z"
            fill="white" />
        <path
            d="M74.2586 12.2338H75.2851V13.0922H75.3648C75.5 12.7839 75.728 12.5254 76.0171 12.3529C76.3061 12.1803 76.6418 12.1022 76.9773 12.1295C77.2403 12.1097 77.5043 12.1493 77.7498 12.2455C77.9953 12.3416 78.216 12.4917 78.3957 12.6847C78.5753 12.8777 78.7092 13.1087 78.7874 13.3605C78.8657 13.6122 78.8862 13.8784 78.8476 14.1392V17.6372H77.7812V14.407C77.7812 13.5387 77.4039 13.1068 76.6152 13.1068C76.4367 13.0985 76.2585 13.1289 76.0929 13.1959C75.9272 13.2629 75.778 13.3649 75.6554 13.495C75.5329 13.625 75.4399 13.7801 75.3829 13.9494C75.3258 14.1188 75.3061 14.2985 75.325 14.4762V17.6373H74.2586L74.2586 12.2338Z"
            fill="white" />
        <path d="M80.5469 10.1244H81.6133V17.6373H80.5469V10.1244Z" fill="white" />
        <path
            d="M83.0957 14.9332C83.0617 14.5781 83.1024 14.2198 83.215 13.8813C83.3277 13.5428 83.5098 13.2316 83.7498 12.9676C83.9897 12.7036 84.2822 12.4927 84.6084 12.3483C84.9347 12.204 85.2875 12.1294 85.6442 12.1294C86.001 12.1294 86.3538 12.204 86.68 12.3483C87.0063 12.4927 87.2987 12.7036 87.5387 12.9676C87.7787 13.2316 87.9608 13.5428 88.0734 13.8813C88.1861 14.2198 88.2267 14.5781 88.1928 14.9332C88.2273 15.2887 88.1872 15.6475 88.0748 15.9865C87.9625 16.3255 87.7804 16.6373 87.5404 16.9018C87.3004 17.1663 87.0077 17.3776 86.6812 17.5223C86.3546 17.6669 86.0014 17.7416 85.6442 17.7416C85.2871 17.7416 84.9339 17.6669 84.6073 17.5223C84.2807 17.3776 83.988 17.1663 83.748 16.9018C83.508 16.6373 83.326 16.3255 83.2136 15.9865C83.1013 15.6475 83.0611 15.2887 83.0957 14.9332ZM87.0953 14.9332C87.0953 13.7619 86.5691 13.077 85.6457 13.077C84.7187 13.077 84.1973 13.7619 84.1973 14.9332C84.1973 16.1139 84.7188 16.7936 85.6457 16.7936C86.5691 16.7935 87.0953 16.1092 87.0953 14.9332Z"
            fill="white" />
        <path
            d="M89.3154 16.1092C89.3154 15.1365 90.0396 14.5758 91.3252 14.4961L92.7889 14.4117V13.9453C92.7889 13.3746 92.4115 13.0523 91.6826 13.0523C91.0873 13.0523 90.6748 13.2709 90.5564 13.6529H89.524C89.633 12.7248 90.5061 12.1295 91.7318 12.1295C93.0865 12.1295 93.8506 12.8039 93.8506 13.9453V17.6373H92.824V16.8779H92.7397C92.5684 17.1503 92.3279 17.3724 92.0428 17.5214C91.7576 17.6705 91.438 17.7412 91.1166 17.7263C90.8898 17.7499 90.6605 17.7257 90.4436 17.6553C90.2267 17.5848 90.0269 17.4697 89.8572 17.3174C89.6875 17.165 89.5516 16.9788 89.4583 16.7707C89.365 16.5626 89.3163 16.3372 89.3154 16.1092ZM92.7889 15.6474V15.1957L91.4693 15.2801C90.7252 15.3299 90.3877 15.583 90.3877 16.0594C90.3877 16.5457 90.8096 16.8287 91.3897 16.8287C91.5597 16.8459 91.7314 16.8287 91.8946 16.7782C92.0578 16.7277 92.2092 16.6449 92.3397 16.5347C92.4702 16.4245 92.5773 16.2891 92.6544 16.1367C92.7316 15.9843 92.7773 15.8179 92.7889 15.6474Z"
            fill="white" />
        <path
            d="M95.2521 14.9332C95.2521 13.2258 96.1299 12.1441 97.4951 12.1441C97.8328 12.1286 98.168 12.2095 98.4614 12.3773C98.7548 12.5452 98.9944 12.7931 99.1521 13.0921H99.2318V10.1244H100.298V17.6373H99.2764V16.7836H99.192C99.0221 17.0806 98.7741 17.3254 98.475 17.4916C98.1759 17.6577 97.8371 17.7389 97.4951 17.7263C96.1205 17.7264 95.2521 16.6447 95.2521 14.9332ZM96.3537 14.9332C96.3537 16.0793 96.894 16.7689 97.7975 16.7689C98.6963 16.7689 99.2518 16.0693 99.2518 14.9379C99.2518 13.8117 98.6905 13.1021 97.7975 13.1021C96.8998 13.1021 96.3537 13.7965 96.3537 14.9332Z"
            fill="white" />
        <path
            d="M104.71 14.9332C104.676 14.5781 104.717 14.2198 104.83 13.8813C104.942 13.5428 105.124 13.2316 105.364 12.9677C105.604 12.7037 105.897 12.4928 106.223 12.3484C106.549 12.2041 106.902 12.1295 107.259 12.1295C107.615 12.1295 107.968 12.2041 108.294 12.3484C108.621 12.4928 108.913 12.7037 109.153 12.9677C109.393 13.2316 109.575 13.5428 109.688 13.8813C109.8 14.2198 109.841 14.5781 109.807 14.9332C109.841 15.2887 109.801 15.6474 109.689 15.9865C109.577 16.3255 109.395 16.6373 109.155 16.9018C108.915 17.1663 108.622 17.3776 108.295 17.5223C107.969 17.6669 107.616 17.7416 107.259 17.7416C106.901 17.7416 106.548 17.6669 106.222 17.5223C105.895 17.3776 105.602 17.1663 105.362 16.9018C105.122 16.6373 104.94 16.3255 104.828 15.9865C104.716 15.6474 104.676 15.2887 104.71 14.9332ZM108.71 14.9332C108.71 13.7619 108.184 13.077 107.26 13.077C106.333 13.077 105.812 13.7619 105.812 14.9332C105.812 16.1139 106.333 16.7936 107.26 16.7936C108.184 16.7935 108.71 16.1092 108.71 14.9332Z"
            fill="white" />
        <path
            d="M111.238 12.2338H112.264V13.0922H112.344C112.479 12.7839 112.707 12.5254 112.996 12.3529C113.285 12.1803 113.621 12.1022 113.956 12.1295C114.219 12.1097 114.483 12.1493 114.729 12.2455C114.974 12.3416 115.195 12.4917 115.375 12.6847C115.554 12.8777 115.688 13.1087 115.767 13.3605C115.845 13.6122 115.865 13.8784 115.827 14.1392V17.6372H114.76V14.407C114.76 13.5387 114.383 13.1068 113.594 13.1068C113.416 13.0985 113.238 13.1289 113.072 13.1959C112.906 13.2629 112.757 13.3649 112.635 13.495C112.512 13.625 112.419 13.7801 112.362 13.9494C112.305 14.1188 112.285 14.2985 112.304 14.4762V17.6373H111.238V12.2338Z"
            fill="white" />
        <path
            d="M121.853 10.8885V12.2584H123.023V13.1566H121.853V15.9351C121.853 16.5012 122.086 16.749 122.617 16.749C122.753 16.7486 122.888 16.7404 123.023 16.7244V17.6127C122.832 17.6469 122.638 17.6652 122.443 17.6672C121.257 17.6672 120.785 17.25 120.785 16.2082V13.1566H119.927V12.2583H120.785V10.8885H121.853Z"
            fill="white" />
        <path
            d="M124.48 10.1244H125.537V13.1021H125.621C125.763 12.7909 125.997 12.531 126.292 12.3578C126.587 12.1846 126.928 12.1065 127.269 12.1342C127.53 12.1199 127.792 12.1636 128.035 12.262C128.277 12.3605 128.495 12.5113 128.673 12.7037C128.851 12.8961 128.984 13.1254 129.063 13.3751C129.142 13.6249 129.165 13.889 129.13 14.1486V17.6373H128.062V14.4117C128.062 13.5486 127.66 13.1115 126.907 13.1115C126.724 13.0965 126.539 13.1217 126.367 13.1853C126.194 13.249 126.038 13.3496 125.908 13.4801C125.778 13.6105 125.679 13.7678 125.616 13.9407C125.554 14.1137 125.53 14.2982 125.546 14.4814V17.6373H124.48L124.48 10.1244Z"
            fill="white" />
        <path
            d="M135.348 16.1783C135.203 16.6722 134.889 17.0993 134.461 17.3851C134.033 17.6709 133.518 17.7971 133.006 17.7416C132.65 17.751 132.297 17.6828 131.97 17.5418C131.643 17.4007 131.35 17.1902 131.113 16.9249C130.875 16.6595 130.698 16.3456 130.594 16.005C130.49 15.6644 130.462 15.3053 130.51 14.9525C130.463 14.5987 130.492 14.2387 130.596 13.8971C130.7 13.5555 130.876 13.2402 131.112 12.9725C131.348 12.7048 131.639 12.491 131.965 12.3456C132.291 12.2001 132.645 12.1264 133.002 12.1295C134.505 12.1295 135.412 13.1567 135.412 14.8535V15.2256H131.597V15.2853C131.58 15.4836 131.605 15.6832 131.67 15.8713C131.735 16.0594 131.838 16.2319 131.974 16.3776C132.109 16.5234 132.274 16.6392 132.457 16.7177C132.64 16.7962 132.837 16.8356 133.036 16.8333C133.291 16.864 133.549 16.818 133.778 16.7014C134.007 16.5847 134.196 16.4027 134.321 16.1783L135.348 16.1783ZM131.597 14.4369H134.326C134.339 14.2555 134.315 14.0734 134.254 13.9021C134.192 13.7309 134.096 13.5743 133.971 13.4425C133.846 13.3106 133.694 13.2065 133.526 13.1367C133.358 13.0668 133.178 13.0329 132.996 13.0371C132.811 13.0348 132.628 13.0694 132.458 13.1389C132.287 13.2085 132.132 13.3115 132.001 13.442C131.871 13.5724 131.768 13.7277 131.698 13.8985C131.629 14.0694 131.594 14.2525 131.597 14.4369Z"
            fill="white" />
    </g>
    <defs>
        <clipPath id="clip0_16467_137549">
            <rect width="162" height="48" fill="white" />
        </clipPath>
    </defs>
</svg>