<svg width="162" height="48" viewBox="0 0 162 48" fill="none" xmlns="http://www.w3.org/2000/svg">
    <g clip-path="url(#clip0_16467_137548)">
        <path
            d="M155.999 0H5.99997C2.68628 0 0 2.68628 0 5.99997V41.9998C0 45.3135 2.68628 47.9998 5.99997 47.9998H155.999C159.313 47.9998 161.999 45.3135 161.999 41.9998V5.99997C161.999 2.68628 159.313 0 155.999 0Z"
            fill="black" />
        <path
            d="M155.999 0.959938C157.335 0.961482 158.617 1.49301 159.561 2.43791C160.506 3.38281 161.038 4.66391 161.039 6.00015V42C161.038 43.3362 160.506 44.6173 159.561 45.5622C158.617 46.5071 157.335 47.0386 155.999 47.0402H5.99997C4.66372 47.0387 3.38264 46.5071 2.43779 45.5622C1.49293 44.6173 0.961472 43.3362 0.959995 42V6.00015C0.96145 4.66389 1.4929 3.38278 2.43776 2.43787C3.38262 1.49297 4.66371 0.961457 5.99997 0.959938H155.999ZM155.999 0.000183105H5.99997C4.41011 0.0048368 2.8867 0.638469 1.76249 1.76267C0.638286 2.88688 0.00465369 4.41029 0 6.00015L0 42C0.00465369 43.5898 0.638286 45.1133 1.76249 46.2375C2.8867 47.3617 4.41011 47.9953 5.99997 47.9999H155.999C157.589 47.9953 159.112 47.3617 160.237 46.2375C161.361 45.1133 161.995 43.5898 161.999 42V6.00015C161.995 4.41029 161.361 2.88688 160.237 1.76267C159.112 0.638469 157.589 0.0048368 155.999 0.000183105Z"
            fill="#A6A6A6" />
        <path
            d="M56.9031 12.2919C56.9249 12.7322 56.8568 13.1724 56.7031 13.5856C56.5494 13.9988 56.3132 14.3764 56.0088 14.6954C55.6678 15.0491 55.2559 15.3268 54.8001 15.5104C54.3443 15.6939 53.8549 15.7792 53.3639 15.7606C52.8698 15.765 52.3798 15.6706 51.9226 15.483C51.4655 15.2953 51.0505 15.0181 50.702 14.6678C50.3535 14.3174 50.0786 13.9009 49.8934 13.4428C49.7081 12.9847 49.6164 12.4942 49.6234 12.0001C49.6164 11.5059 49.7082 11.0154 49.8935 10.5573C50.0787 10.0991 50.3536 9.68263 50.7021 9.33224C51.0506 8.98185 51.4655 8.70464 51.9226 8.51688C52.3798 8.32913 52.8698 8.23462 53.3639 8.23891C53.872 8.23737 54.3749 8.34009 54.8417 8.54071C55.2752 8.71644 55.6611 8.99208 55.9679 9.34518L55.335 9.97854C55.0939 9.69468 54.7907 9.47003 54.4489 9.32191C54.1072 9.17379 53.736 9.10617 53.3639 9.12427C52.9894 9.12233 52.6184 9.19599 52.273 9.34084C51.9277 9.4857 51.6151 9.69876 51.3541 9.96727C51.093 10.2358 50.8888 10.5542 50.7537 10.9035C50.6187 11.2528 50.5555 11.6258 50.5679 12.0001C50.559 12.5607 50.7168 13.1113 51.0212 13.5822C51.3256 14.0531 51.7631 14.4229 52.278 14.6448C52.7929 14.8668 53.3621 14.9308 53.9134 14.8288C54.4648 14.7268 54.9734 14.4634 55.3749 14.072C55.7443 13.6738 55.9585 13.1563 55.9784 12.6135H53.3639V11.7487H56.8527C56.8857 11.9279 56.9025 12.1097 56.9031 12.2919Z"
            fill="white" />
        <path
            d="M62.4342 9.28482H59.1553V11.5676H62.112V12.4325H59.1553V14.7153H62.4342V15.6H58.2307V8.40007H62.4342V9.28482Z"
            fill="white" />
        <path d="M66.3354 15.6H65.4096V9.28482H63.3986V8.40007H68.3463V9.28482H66.3354V15.6Z" fill="white" />
        <path d="M71.9264 15.6V8.40007H72.851V15.6H71.9264Z" fill="white" />
        <path d="M76.9549 15.6H76.0291V9.28482H74.0182V8.40007H78.9658V9.28482H76.9549V15.6Z" fill="white" />
        <path
            d="M88.332 14.6696C87.6312 15.3683 86.682 15.7606 85.6924 15.7606C84.7028 15.7606 83.7535 15.3683 83.0527 14.6696C82.7061 14.3184 82.4335 13.9011 82.2513 13.4425C82.0691 12.9839 81.981 12.4934 81.9922 12.0001C81.981 11.5067 82.0691 11.0162 82.2513 10.5576C82.4335 10.099 82.7061 9.6817 83.0527 9.33054C83.3991 8.98407 83.8105 8.7093 84.2632 8.52199C84.7159 8.33467 85.2011 8.23848 85.691 8.23891C86.1809 8.23935 86.666 8.3364 87.1183 8.52452C87.5707 8.71264 87.9815 8.98813 88.3273 9.33522C88.6743 9.68545 88.9473 10.1018 89.1303 10.5596C89.3133 11.0173 89.4025 11.5072 89.3926 12.0001C89.4034 12.4933 89.3152 12.9838 89.133 13.4424C88.9508 13.9009 88.6784 14.3182 88.332 14.6696ZM83.7359 14.0667C84.2549 14.5848 84.9584 14.8758 85.6918 14.8758C86.4252 14.8758 87.1286 14.5848 87.6476 14.0667C87.9138 13.7942 88.122 13.4706 88.2595 13.1154C88.3971 12.7601 88.4612 12.3807 88.448 12.0001C88.4612 11.6194 88.3971 11.24 88.2595 10.8848C88.122 10.5295 87.9138 10.2059 87.6476 9.93342C87.1286 9.41527 86.4252 9.12425 85.6918 9.12425C84.9584 9.12425 84.2549 9.41527 83.7359 9.93342C83.4701 10.2061 83.2623 10.5298 83.1249 10.885C82.9876 11.2402 82.9236 11.6195 82.9367 12.0001C82.9236 12.3806 82.9876 12.7599 83.1249 13.1151C83.2623 13.4703 83.4701 13.794 83.7359 14.0667Z"
            fill="white" />
        <path
            d="M90.6909 15.6V8.40007H91.8171L95.3163 14.001H95.3562L95.3163 12.6135V8.40007H96.2421V15.6H95.2765L91.6155 9.72774H91.5757L91.6155 11.1153V15.6H90.6909Z"
            fill="white" />
        <path
            d="M56.9031 12.2919C56.9249 12.7322 56.8568 13.1724 56.7031 13.5856C56.5494 13.9988 56.3132 14.3764 56.0088 14.6954C55.6678 15.0491 55.2559 15.3268 54.8001 15.5104C54.3443 15.6939 53.8549 15.7792 53.3639 15.7606C52.8698 15.765 52.3798 15.6706 51.9226 15.483C51.4655 15.2953 51.0505 15.0181 50.702 14.6678C50.3535 14.3174 50.0786 13.9009 49.8934 13.4428C49.7081 12.9847 49.6164 12.4942 49.6234 12.0001C49.6164 11.5059 49.7082 11.0154 49.8935 10.5573C50.0787 10.0991 50.3536 9.68263 50.7021 9.33224C51.0506 8.98185 51.4655 8.70464 51.9226 8.51688C52.3798 8.32913 52.8698 8.23462 53.3639 8.23891C53.872 8.23737 54.3749 8.34009 54.8417 8.54071C55.2752 8.71644 55.6611 8.99208 55.9679 9.34518L55.335 9.97854C55.0939 9.69468 54.7907 9.47003 54.4489 9.32191C54.1072 9.17379 53.736 9.10617 53.3639 9.12427C52.9894 9.12233 52.6184 9.19599 52.273 9.34084C51.9277 9.4857 51.6151 9.69876 51.3541 9.96727C51.093 10.2358 50.8888 10.5542 50.7537 10.9035C50.6187 11.2528 50.5555 11.6258 50.5679 12.0001C50.559 12.5607 50.7168 13.1113 51.0212 13.5822C51.3256 14.0531 51.7631 14.4229 52.278 14.6448C52.7929 14.8668 53.3621 14.9308 53.9134 14.8288C54.4648 14.7268 54.9734 14.4634 55.3749 14.072C55.7443 13.6738 55.9585 13.1563 55.9784 12.6135H53.3639V11.7487H56.8527C56.8857 11.9279 56.9025 12.1097 56.9031 12.2919Z"
            stroke="white" stroke-width="0.2" stroke-miterlimit="10" />
        <path
            d="M62.4342 9.28482H59.1553V11.5676H62.112V12.4325H59.1553V14.7153H62.4342V15.6H58.2307V8.40007H62.4342V9.28482Z"
            stroke="white" stroke-width="0.2" stroke-miterlimit="10" />
        <path d="M66.3354 15.6H65.4096V9.28482H63.3986V8.40007H68.3463V9.28482H66.3354V15.6Z" stroke="white"
            stroke-width="0.2" stroke-miterlimit="10" />
        <path d="M71.9264 15.6V8.40007H72.851V15.6H71.9264Z" stroke="white" stroke-width="0.2" stroke-miterlimit="10" />
        <path d="M76.9549 15.6H76.0291V9.28482H74.0182V8.40007H78.9658V9.28482H76.9549V15.6Z" stroke="white"
            stroke-width="0.2" stroke-miterlimit="10" />
        <path
            d="M88.332 14.6696C87.6312 15.3683 86.682 15.7606 85.6924 15.7606C84.7028 15.7606 83.7535 15.3683 83.0527 14.6696C82.7061 14.3184 82.4335 13.9011 82.2513 13.4425C82.0691 12.9839 81.981 12.4934 81.9922 12.0001C81.981 11.5067 82.0691 11.0162 82.2513 10.5576C82.4335 10.099 82.7061 9.6817 83.0527 9.33054C83.3991 8.98407 83.8105 8.7093 84.2632 8.52199C84.7159 8.33467 85.2011 8.23848 85.691 8.23891C86.1809 8.23935 86.666 8.3364 87.1183 8.52452C87.5707 8.71264 87.9815 8.98813 88.3273 9.33522C88.6743 9.68545 88.9473 10.1018 89.1303 10.5596C89.3133 11.0173 89.4025 11.5072 89.3926 12.0001C89.4034 12.4933 89.3152 12.9838 89.133 13.4424C88.9508 13.9009 88.6784 14.3182 88.332 14.6696ZM83.7359 14.0667C84.2549 14.5848 84.9584 14.8758 85.6918 14.8758C86.4252 14.8758 87.1286 14.5848 87.6476 14.0667C87.9138 13.7942 88.122 13.4706 88.2595 13.1154C88.3971 12.7601 88.4612 12.3807 88.448 12.0001C88.4612 11.6194 88.3971 11.24 88.2595 10.8848C88.122 10.5295 87.9138 10.2059 87.6476 9.93342C87.1286 9.41527 86.4252 9.12425 85.6918 9.12425C84.9584 9.12425 84.2549 9.41527 83.7359 9.93342C83.4701 10.2061 83.2623 10.5298 83.1249 10.885C82.9876 11.2402 82.9236 11.6195 82.9367 12.0001C82.9236 12.3806 82.9876 12.7599 83.1249 13.1151C83.2623 13.4703 83.4701 13.794 83.7359 14.0667Z"
            stroke="white" stroke-width="0.2" stroke-miterlimit="10" />
        <path
            d="M90.6909 15.6V8.40007H91.8171L95.3163 14.001H95.3562L95.3163 12.6135V8.40007H96.2421V15.6H95.2765L91.6155 9.72774H91.5757L91.6155 11.1153V15.6H90.6909Z"
            stroke="white" stroke-width="0.2" stroke-miterlimit="10" />
        <path
            d="M81.7631 26.1019C80.7545 26.1057 79.7696 26.4083 78.9328 26.9714C78.0961 27.5345 77.4449 28.333 77.0616 29.2659C76.6783 30.1988 76.58 31.2244 76.7791 32.2132C76.9782 33.202 77.4658 34.1096 78.1804 34.8214C78.8949 35.5332 79.8044 36.0174 80.7939 36.2128C81.7834 36.4081 82.8086 36.3059 83.7401 35.919C84.6715 35.5322 85.4675 34.878 86.0274 34.0391C86.5874 33.2002 86.8862 32.2142 86.8862 31.2056C86.8961 30.531 86.7702 29.8612 86.516 29.2363C86.2618 28.6113 85.8845 28.0439 85.4065 27.5677C84.9286 27.0915 84.3597 26.7164 83.7338 26.4646C83.1078 26.2127 82.4376 26.0894 81.7631 26.1019ZM81.7631 34.2988C81.1419 34.3431 80.5218 34.1993 79.9835 33.8863C79.4452 33.5732 79.0136 33.1053 78.745 32.5435C78.4763 31.9818 78.383 31.3521 78.4772 30.7365C78.5714 30.121 78.8487 29.548 79.2731 29.0923C79.6975 28.6366 80.2493 28.3192 80.8566 28.1814C81.4638 28.0437 82.0985 28.092 82.678 28.32C83.2575 28.548 83.7549 28.9452 84.1055 29.4599C84.456 29.9746 84.6435 30.5828 84.6435 31.2056C84.6624 31.599 84.6023 31.9922 84.4669 32.362C84.3315 32.7319 84.1235 33.0709 83.8551 33.3591C83.5867 33.6474 83.2633 33.879 82.904 34.0404C82.5448 34.2017 82.1568 34.2896 81.7631 34.2988ZM70.587 26.1019C69.5784 26.1057 68.5936 26.4082 67.7568 26.9714C66.92 27.5345 66.2688 28.3329 65.8855 29.2658C65.5021 30.1988 65.4038 31.2244 65.6029 32.2131C65.802 33.2019 66.2896 34.1095 67.0042 34.8214C67.7187 35.5332 68.6282 36.0174 69.6177 36.2128C70.6072 36.4081 71.6324 36.3059 72.5639 35.9191C73.4954 35.5322 74.2913 34.878 74.8513 34.0391C75.4112 33.2002 75.7101 32.2142 75.7101 31.2056C75.72 30.531 75.5941 29.8613 75.3399 29.2363C75.0857 28.6113 74.7084 28.0439 74.2304 27.5677C73.7525 27.0916 73.1836 26.7164 72.5577 26.4646C71.9318 26.2128 71.2616 26.0894 70.587 26.1019ZM70.587 34.2988C69.9659 34.3431 69.3458 34.1993 68.8075 33.8863C68.2692 33.5732 67.8376 33.1053 67.569 32.5435C67.3003 31.9818 67.207 31.3521 67.3012 30.7365C67.3954 30.121 67.6727 29.548 68.0971 29.0923C68.5215 28.6366 69.0732 28.3192 69.6805 28.1814C70.2878 28.0437 70.9225 28.092 71.502 28.32C72.0815 28.548 72.5789 28.9452 72.9294 29.4599C73.28 29.9746 73.4675 30.5828 73.4675 31.2056C73.4864 31.599 73.4263 31.9922 73.2909 32.362C73.1555 32.7319 72.9475 33.0709 72.6791 33.3591C72.4107 33.6474 72.0873 33.879 71.728 34.0404C71.3687 34.2018 70.9808 34.2896 70.587 34.2988ZM57.2926 27.6679V29.833H62.4738C62.399 30.8486 61.9834 31.8091 61.2944 32.5589C60.7752 33.0882 60.1508 33.5027 59.4615 33.7757C58.7722 34.0487 58.0333 34.1742 57.2926 34.1441C55.7781 34.1236 54.3327 33.5076 53.269 32.4294C52.2053 31.3513 51.609 29.8976 51.609 28.3831C51.609 26.8685 52.2053 25.4149 53.269 24.3367C54.3327 23.2585 55.7781 22.6425 57.2926 22.622C58.7472 22.603 60.1506 23.1588 61.1978 24.1686L62.725 22.6413C62.0105 21.9339 61.162 21.3763 60.2291 21.0012C59.2963 20.6261 58.2979 20.441 57.2926 20.4567C56.2419 20.4414 55.1988 20.6352 54.2237 21.0266C53.2486 21.4181 52.3611 21.9995 51.6128 22.7371C50.8644 23.4746 50.2701 24.3536 49.8645 25.3228C49.4589 26.2921 49.25 27.3323 49.25 28.3831C49.25 29.4338 49.4589 30.474 49.8645 31.4433C50.2701 32.4126 50.8644 33.2915 51.6128 34.0291C52.3611 34.7666 53.2486 35.348 54.2237 35.7395C55.1988 36.131 56.2419 36.3247 57.2926 36.3094C58.3191 36.352 59.343 36.1757 60.2962 35.7924C61.2495 35.4091 62.1103 34.8275 62.8216 34.0862C64.0845 32.7077 64.7577 30.8896 64.697 29.0211C64.702 28.5673 64.663 28.1141 64.5808 27.6679H57.2926ZM111.662 29.3497C111.356 28.4252 110.772 27.6176 109.99 27.0366C109.208 26.4555 108.267 26.1292 107.293 26.1019C106.637 26.1059 105.989 26.2429 105.388 26.5046C104.787 26.7662 104.245 27.1471 103.795 27.6241C103.345 28.1012 102.996 28.6645 102.77 29.2801C102.544 29.8957 102.445 30.5507 102.479 31.2056C102.465 31.8766 102.585 32.5437 102.834 33.167C103.083 33.7904 103.455 34.3572 103.928 34.8336C104.4 35.31 104.964 35.6862 105.586 35.9398C106.207 36.1933 106.873 36.319 107.544 36.3094C108.385 36.314 109.214 36.1098 109.956 35.715C110.699 35.3202 111.331 34.7472 111.797 34.0475L110.058 32.8876C109.797 33.3205 109.428 33.6782 108.988 33.9256C108.547 34.173 108.05 34.3016 107.544 34.2988C107.025 34.3187 106.511 34.1819 106.069 33.9061C105.628 33.6303 105.28 33.2283 105.07 32.7522L111.894 29.9297L111.662 29.3497ZM104.703 31.051C104.679 30.6795 104.729 30.307 104.851 29.9552C104.972 29.6034 105.163 29.2794 105.411 29.0022C105.66 28.725 105.961 28.5001 106.297 28.3407C106.634 28.1813 106.998 28.0905 107.37 28.0738C107.758 28.0483 108.144 28.1374 108.481 28.3299C108.818 28.5225 109.09 28.8099 109.265 29.1565L104.703 31.051ZM99.1541 36H101.397V20.9982H99.1541V36ZM95.4809 27.2425H95.4036C95.0627 26.872 94.6466 26.5787 94.1832 26.382C93.7198 26.1853 93.2197 26.0898 92.7164 26.1019C91.4004 26.1579 90.1568 26.7201 89.2454 27.6711C88.334 28.6221 87.8252 29.8884 87.8252 31.2056C87.8252 32.5228 88.334 33.7892 89.2454 34.7402C90.1568 35.6912 91.4004 36.2534 92.7164 36.3094C93.2217 36.3228 93.7238 36.226 94.1879 36.0257C94.652 35.8254 95.0668 35.5264 95.4036 35.1495H95.4809V35.8841C95.4809 37.8367 94.437 38.8806 92.755 38.8806C92.1945 38.8672 91.6506 38.6872 91.1927 38.3636C90.7348 38.0399 90.3836 37.5873 90.1839 37.0633L88.2313 37.8754C88.5993 38.7714 89.2265 39.5371 90.0324 40.0744C90.8384 40.6117 91.7864 40.8961 92.755 40.8912C95.3843 40.8912 97.6076 39.3446 97.6076 35.5747V26.4111H95.4809V27.2425ZM92.9098 34.2988C92.1347 34.2331 91.4125 33.8787 90.8862 33.3059C90.3599 32.7331 90.0678 31.9835 90.0678 31.2056C90.0678 30.4277 90.3599 29.6782 90.8862 29.1054C91.4125 28.5325 92.1347 28.1782 92.9098 28.1125C93.2954 28.1313 93.6733 28.2276 94.021 28.3956C94.3686 28.5635 94.6788 28.7998 94.9332 29.0902C95.1875 29.3807 95.3808 29.7194 95.5015 30.0861C95.6222 30.4529 95.6678 30.8401 95.6356 31.2249C95.6658 31.6072 95.6185 31.9918 95.4966 32.3554C95.3747 32.7191 95.1808 33.0544 94.9263 33.3414C94.6718 33.6284 94.3621 33.8611 94.0156 34.0256C93.6691 34.1901 93.293 34.283 92.9098 34.2988ZM122.167 20.9984H116.801V36H119.04V30.3164H122.167C122.8 30.3511 123.434 30.2563 124.029 30.0379C124.625 29.8194 125.169 29.4819 125.63 29.0458C126.091 28.6098 126.458 28.0844 126.708 27.5018C126.959 26.9192 127.088 26.2916 127.088 25.6574C127.088 25.0231 126.959 24.3955 126.708 23.813C126.458 23.2304 126.091 22.705 125.63 22.269C125.169 21.8329 124.625 21.4954 124.029 21.2769C123.434 21.0585 122.8 20.9637 122.167 20.9984ZM122.225 28.2286H119.04V23.0863H122.225C122.567 23.0792 122.907 23.1405 123.225 23.2665C123.543 23.3925 123.833 23.5808 124.078 23.8202C124.322 24.0597 124.516 24.3455 124.649 24.661C124.781 24.9765 124.85 25.3152 124.85 25.6575C124.85 25.9997 124.781 26.3384 124.649 26.6539C124.516 26.9694 124.322 27.2552 124.078 27.4947C123.833 27.7341 123.543 27.9224 123.225 28.0484C122.907 28.1744 122.567 28.2357 122.225 28.2286ZM136.063 26.0743C135.245 26.0266 134.432 26.2185 133.722 26.6265C133.013 27.0344 132.438 27.6407 132.068 28.3709L134.055 29.2009C134.253 28.8384 134.551 28.5413 134.914 28.3459C135.278 28.1505 135.69 28.0653 136.101 28.1007C136.669 28.0452 137.236 28.2173 137.677 28.579C138.119 28.9408 138.399 29.4628 138.456 30.0307V30.1851C137.737 29.8031 136.935 29.6042 136.121 29.6061C133.978 29.6061 131.797 30.7834 131.797 32.9836C131.818 33.4473 131.932 33.9021 132.132 34.321C132.332 34.7398 132.614 35.1143 132.961 35.4221C133.309 35.7299 133.714 35.9648 134.154 36.1128C134.594 36.2609 135.059 36.319 135.522 36.2838C136.086 36.317 136.648 36.1984 137.151 35.9405C137.653 35.6825 138.077 35.2946 138.379 34.8171H138.456V35.9751H140.617V30.2237C140.617 27.5603 138.629 26.0743 136.063 26.0743ZM135.792 34.2959C135.059 34.2959 134.036 33.9293 134.036 33.0221C134.036 31.8642 135.31 31.4202 136.41 31.4202C137.125 31.4012 137.831 31.5745 138.456 31.9221C138.374 32.5728 138.059 33.1717 137.569 33.6081C137.079 34.0444 136.448 34.2888 135.792 34.2959ZM148.492 26.4024L145.925 32.9063H145.848L143.184 26.4024H140.772L144.767 35.4925L142.489 40.5491H144.825L150.981 26.4024H148.492ZM128.323 36H130.562V20.9984H128.323V36Z"
            fill="white" />
        <path
            d="M12.5226 9.04568C12.1291 9.51616 11.9304 10.1193 11.9673 10.7315V37.2707C11.9303 37.883 12.129 38.4862 12.5226 38.9566L12.6114 39.0431L27.4781 24.1765V23.8258L12.6114 8.95856L12.5226 9.04568Z"
            fill="url(#paint0_linear_16467_137548)" />
        <path
            d="M32.4338 29.1342L27.4785 24.1765V23.8258L32.435 18.8693L32.5467 18.933L38.418 22.2691C40.0951 23.2219 40.0951 24.781 38.418 25.7344L32.5467 29.0705L32.4338 29.1342Z"
            fill="url(#paint1_linear_16467_137548)" />
        <path
            d="M32.5471 29.0699L27.479 24.0012L12.5234 38.9566C12.8652 39.258 13.3015 39.4304 13.757 39.4438C14.2124 39.4573 14.6582 39.311 15.0171 39.0303L32.5471 29.0699Z"
            fill="url(#paint2_linear_16467_137548)" />
        <path
            d="M32.5471 18.9324L15.0171 8.97199C14.6582 8.6913 14.2124 8.54501 13.757 8.55847C13.3015 8.57193 12.8652 8.74428 12.5234 9.04567L27.479 24.0012L32.5471 18.9324Z"
            fill="url(#paint3_linear_16467_137548)" />
        <path opacity="0.2"
            d="M32.4354 28.9583L15.0171 38.855C14.672 39.1177 14.2509 39.261 13.8171 39.2633C13.3834 39.2656 12.9607 39.1268 12.6128 38.8678L12.5234 38.9572L12.6122 39.0437L12.6128 39.0431C12.9607 39.3023 13.3834 39.4412 13.8171 39.4389C14.2509 39.4366 14.6721 39.2931 15.0171 39.0303L32.5471 29.0699L32.4354 28.9583Z"
            fill="black" />
        <path opacity="0.12"
            d="M12.5226 38.7819C12.1291 38.3114 11.9304 37.7082 11.9672 37.096V37.2713C11.9304 37.8836 12.1291 38.4867 12.5226 38.9572L12.612 38.8678L12.5226 38.7819Z"
            fill="black" />
        <path opacity="0.12"
            d="M38.4186 25.5584L32.4355 28.9582L32.5473 29.0698L38.4186 25.7337C38.764 25.5838 39.0628 25.3441 39.2841 25.0395C39.5053 24.7348 39.6409 24.3764 39.6766 24.0016C39.6023 24.3411 39.45 24.6585 39.2316 24.9287C39.0132 25.199 38.7349 25.4146 38.4186 25.5584Z"
            fill="black" />
        <path opacity="0.25"
            d="M15.0159 9.14792L38.4172 22.4439C38.7336 22.5877 39.012 22.8033 39.2304 23.0737C39.4488 23.3441 39.6011 23.6617 39.6751 24.0012C39.6397 23.6263 39.5043 23.2677 39.283 22.9629C39.0617 22.6582 38.7627 22.4183 38.4172 22.2685L15.0159 8.9726C13.3388 8.01969 11.9668 8.8112 11.9668 10.7322V10.9075C11.9668 8.98664 13.3388 8.19513 15.0159 9.14792Z"
            fill="white" />
    </g>
    <defs>
        <linearGradient id="paint0_linear_16467_137548" x1="26.1597" y1="10.4517" x2="6.02096" y2="30.5905"
            gradientUnits="userSpaceOnUse">
            <stop stop-color="#00A0FF" />
            <stop offset="0.00657" stop-color="#00A1FF" />
            <stop offset="0.2601" stop-color="#00BEFF" />
            <stop offset="0.5122" stop-color="#00D2FF" />
            <stop offset="0.7604" stop-color="#00DFFF" />
            <stop offset="1" stop-color="#00E3FF" />
        </linearGradient>
        <linearGradient id="paint1_linear_16467_137548" x1="40.6016" y1="24.0018" x2="11.5655" y2="24.0018"
            gradientUnits="userSpaceOnUse">
            <stop stop-color="#FFE000" />
            <stop offset="0.4087" stop-color="#FFBD00" />
            <stop offset="0.7754" stop-color="#FFA500" />
            <stop offset="1" stop-color="#FF9C00" />
        </linearGradient>
        <linearGradient id="paint2_linear_16467_137548" x1="29.7932" y1="26.7553" x2="2.48341" y2="54.0651"
            gradientUnits="userSpaceOnUse">
            <stop stop-color="#FF3A44" />
            <stop offset="1" stop-color="#C31162" />
        </linearGradient>
        <linearGradient id="paint3_linear_16467_137548" x1="8.75777" y1="0.211526" x2="20.9527" y2="12.4065"
            gradientUnits="userSpaceOnUse">
            <stop stop-color="#32A071" />
            <stop offset="0.0685" stop-color="#2DA771" />
            <stop offset="0.4762" stop-color="#15CF74" />
            <stop offset="0.8009" stop-color="#06E775" />
            <stop offset="1" stop-color="#00F076" />
        </linearGradient>
        <clipPath id="clip0_16467_137548">
            <rect width="161.999" height="48" fill="white" />
        </clipPath>
    </defs>
</svg>